Coordinates
version=1
nRows=14
nColumns=28
inDegrees=yes

Units are S.I. units (second, meters, Newtons, ...)
Angles are in degrees.

endheader
time	pelvis_tilt	pelvis_list	pelvis_rotation	pelvis_tx	pelvis_ty	pelvis_tz	hip_flexion_r	hip_adduction_r	hip_rotation_r	knee_angle_r	ankle_angle_r	subtalar_angle_r	mtp_angle_r	hip_flexion_l	hip_adduction_l	hip_rotation_l	knee_angle_l	socket_flexion	socket_adduction	socket_rotation	socket_tx	socket_ty	socket_tz	foot_flex	lumbar_extension	lumbar_bending	lumbar_rotation
      0.65416667	      0.80598730	     -2.61450408	      3.89956870	     -0.04415997	      0.98238614	      0.27176587	     24.56637966	      7.08300757	      2.80506213	     -5.85158111	     16.53562143	    -25.97592050	    -12.06101158	    -21.30750922	     -1.62558667	     -0.44182092	     -7.57407022	     -2.72060417	     -1.10336430	     18.31630392	      0.00000000	     -0.00070663	      0.00000000	     10.17728097	    -12.04753281	      0.85800635	      0.84347629
      0.65833333	      0.85909085	     -2.75290098	      3.99303347	     -0.03850538	      0.98148757	      0.27138583	     24.67579801	      7.33389715	      3.02876387	     -6.49848095	     16.42842097	    -26.08574983	    -11.97527028	    -21.59843855	     -1.80945728	     -0.43673739	     -7.73883851	     -2.66852533	     -1.09335138	     18.39302876	      0.00000000	     -0.00064052	      0.00000000	     10.28349456	    -12.13886747	      1.15875533	      0.71641559
      0.66250000	      1.32106192	     -3.07260149	      4.00302143	     -0.03243472	      0.98107137	      0.27087454	     24.22985194	      7.81981402	      3.19640082	     -6.89181395	     15.36608433	    -26.91683731	     -9.71563157	    -22.33211633	     -2.16696113	     -1.26372229	     -8.07052958	     -2.79184958	     -1.18339239	     18.97413034	      0.00000000	     -0.00051614	      0.00000000	     10.32508651	    -12.61543343	      1.73810704	      0.49871591
      0.66666667	      1.31767883	     -3.11925918	      4.15044254	     -0.02672259	      0.98021877	      0.27044448	     24.36584716	      7.94958431	      3.44466683	     -7.52291806	     15.20939653	    -26.92594465	     -9.67018582	    -22.53702019	     -2.27282248	     -1.11887820	     -8.25460679	     -2.71343661	     -1.18230744	     19.02206025	      0.00000000	     -0.00028337	      0.00000000	     10.37668457	    -12.62279183	      1.91003205	      0.48139727
      0.67083333	      1.35485585	     -3.22111692	      4.15490941	     -0.02101680	      0.97929581	      0.27014111	     24.62682089	      8.18953104	      3.48598193	     -8.47806876	     14.90437384	    -27.12025255	     -9.50015911	    -22.78678101	     -2.35889399	     -1.14195017	     -8.51048466	     -2.69035013	     -1.17634076	     18.85739134	      0.00000000	     -0.00022312	      0.00000000	     10.41416967	    -12.68225895	      2.14329992	      0.38672901
      0.67500000	      1.37317148	     -3.32673881	      4.23773741	     -0.01522492	      0.97845355	      0.26974007	     24.83718830	      8.39520090	      3.54985517	     -9.31306269	     14.48980669	    -27.33502524	     -9.14293499	    -22.98978474	     -2.49215361	     -1.14706346	     -8.77986537	     -2.64595721	     -1.15620006	     18.84920338	      0.00000000	     -0.00011226	      0.00000000	     10.42218212	    -12.71461300	      2.39416032	      0.28969164
      0.67916667	      1.41803465	     -3.42340938	      4.40317359	     -0.00925268	      0.97762088	      0.26910747	     24.98618947	      8.51197856	      3.35371979	    -10.01609868	     12.43692764	    -28.09766651	     -2.34368058	    -23.07468196	     -2.66032292	     -1.37602848	     -9.50200428	     -2.86961377	     -1.30182798	     19.18397624	      0.00000000	      0.00010076	      0.00000000	     10.41948840	    -12.74212793	      2.66368855	      0.14705950
      0.68333333	      1.45970832	     -3.52013043	      4.50181496	     -0.00352220	      0.97691284	      0.26872668	     25.11495304	      8.70426142	      3.55872457	    -10.76028486	     12.19150926	    -28.11016527	     -2.35929436	    -23.29140912	     -2.79290053	     -1.26625870	     -9.73612859	     -2.76430374	     -1.27475822	     19.15384848	      0.00000000	      0.00019319	      0.00000000	     10.39650628	    -12.80783327	      2.89672971	      0.10125602
      0.68750000	      1.50928355	     -3.62938827	      4.56943203	      0.00229229	      0.97624180	      0.26833820	     25.25767461	      8.91041151	      3.71423254	    -11.58033095	     11.89918401	    -28.16399573	     -2.37286658	    -23.51517533	     -2.92406316	     -1.17885267	     -9.98700714	     -2.66609590	     -1.25482355	     19.10709435	      0.00000000	      0.00030446	      0.00000000	     10.35078175	    -12.88104461	      3.16660795	      0.05022203
      0.69166667	      1.57515845	     -3.75951895	      4.61853387	      0.00815048	      0.97562663	      0.26799946	     25.40964216	      9.14297614	      3.79455522	    -12.45103384	     11.55397960	    -28.26633926	     -2.38105049	    -23.74279776	     -3.06755802	     -1.14337073	    -10.27195565	     -2.57185441	     -1.21810646	     19.00891233	      0.00000000	      0.00038188	      0.00000000	     10.27431382	    -12.96213460	      3.44533412	     -0.01264243
      0.69583333	      1.73682453	     -4.09600644	      4.81469586	      0.01416222	      0.97519684	      0.26738796	     25.37427662	      9.51668247	      3.61817436	    -13.05852065	     10.26514818	    -29.41022649	     -1.52556240	    -23.88903065	     -3.49802731	     -1.34860866	    -11.05403410	     -2.77624450	     -1.28498915	     19.11201810	      0.00000000	      0.00038418	      0.00000000	     10.16461514	    -13.09577101	      4.00874249	     -0.34023489
      0.70000000	      1.80081945	     -4.19303772	      4.78908150	      0.02001877	      0.97468100	      0.26715524	     25.52716205	      9.73365307	      3.74638208	    -13.96020094	      9.94586584	    -29.51167229	     -1.44568074	    -24.08555048	     -3.57361160	     -1.34834501	    -11.39595868	     -2.67199883	     -1.25169430	     18.98331173	      0.00000000	      0.00052681	      0.00000000	     10.03250440	    -13.18579747	      4.24479712	     -0.35792443
      0.70416667	      1.87675313	     -4.32997188	      4.80382726	      0.02591172	      0.97422375	      0.26686278	     25.66031220	      9.96318854	      3.77264280	    -14.83786764	      9.53328079	    -29.68336328	     -1.33023302	    -24.25663975	     -3.71061522	     -1.33922913	    -11.80644794	     -2.58311933	     -1.22050854	     18.89385731	      0.00000000	      0.00057775	      0.00000000	      9.87637829	    -13.27867762	      4.53022855	     -0.36731711
      0.70833333	      1.96715041	     -4.52938313	      4.91053238	      0.03187501	      0.97389034	      0.26646184	     25.74156908	     10.21556524	      3.69400682	    -15.61553170	      8.89711359	    -30.07570891	     -0.98207832	    -24.34241584	     -3.96218778	     -1.35347442	    -12.45148451	     -2.60415412	     -1.22075485	     18.90519090	      0.00000000	      0.00065799	      0.00000000	      9.70469723	    -13.36548796	      4.87514424	     -0.40395596
